<mxfile host="app.diagrams.net" modified="2021-12-23T03:36:16.421Z" agent="5.0 (Windows NT 10.0; Win64; x64) AppleWebKit/537.36 (KHTML, like Gecko) Chrome/91.0.4472.77 Safari/537.36" etag="h61ykOOIcAlrzTaZ2x48" version="16.0.3" type="github">
  <diagram id="psgmNq1rA_GEdRd8kRlt" name="Page-1">
    <mxGraphModel dx="569" dy="320" grid="1" gridSize="10" guides="1" tooltips="1" connect="1" arrows="1" fold="1" page="1" pageScale="1" pageWidth="1920" pageHeight="1200" math="0" shadow="0">
      <root>
        <mxCell id="0" />
        <mxCell id="1" parent="0" />
        <mxCell id="7txPE55cqC671jvcs88a-4" style="edgeStyle=orthogonalEdgeStyle;rounded=0;orthogonalLoop=1;jettySize=auto;html=1;exitX=1;exitY=0.5;exitDx=0;exitDy=0;entryX=0;entryY=0.5;entryDx=0;entryDy=0;" edge="1" parent="1" source="7txPE55cqC671jvcs88a-1" target="7txPE55cqC671jvcs88a-2">
          <mxGeometry relative="1" as="geometry" />
        </mxCell>
        <mxCell id="7txPE55cqC671jvcs88a-1" value="待分析图片" style="rounded=0;whiteSpace=wrap;html=1;" vertex="1" parent="1">
          <mxGeometry x="170" y="441.5" width="70" height="58.5" as="geometry" />
        </mxCell>
        <mxCell id="7txPE55cqC671jvcs88a-5" style="edgeStyle=orthogonalEdgeStyle;rounded=0;orthogonalLoop=1;jettySize=auto;html=1;exitX=1;exitY=0.5;exitDx=0;exitDy=0;" edge="1" parent="1" source="7txPE55cqC671jvcs88a-2" target="7txPE55cqC671jvcs88a-3">
          <mxGeometry relative="1" as="geometry" />
        </mxCell>
        <mxCell id="7txPE55cqC671jvcs88a-2" value="图像预处理" style="rounded=0;whiteSpace=wrap;html=1;" vertex="1" parent="1">
          <mxGeometry x="260" y="442.25" width="70" height="57" as="geometry" />
        </mxCell>
        <mxCell id="7txPE55cqC671jvcs88a-11" style="edgeStyle=orthogonalEdgeStyle;rounded=0;orthogonalLoop=1;jettySize=auto;html=1;exitX=1;exitY=0.5;exitDx=0;exitDy=0;entryX=-0.015;entryY=0.366;entryDx=0;entryDy=0;entryPerimeter=0;" edge="1" parent="1" source="7txPE55cqC671jvcs88a-3" target="7txPE55cqC671jvcs88a-6">
          <mxGeometry relative="1" as="geometry">
            <Array as="points">
              <mxPoint x="450" y="473" />
              <mxPoint x="460" y="473" />
              <mxPoint x="460" y="398" />
              <mxPoint x="479" y="398" />
            </Array>
          </mxGeometry>
        </mxCell>
        <mxCell id="7txPE55cqC671jvcs88a-20" style="edgeStyle=orthogonalEdgeStyle;rounded=0;orthogonalLoop=1;jettySize=auto;html=1;exitX=1;exitY=0.5;exitDx=0;exitDy=0;entryX=0;entryY=0.5;entryDx=0;entryDy=0;" edge="1" parent="1" source="7txPE55cqC671jvcs88a-3" target="7txPE55cqC671jvcs88a-7">
          <mxGeometry relative="1" as="geometry">
            <Array as="points">
              <mxPoint x="450" y="473" />
            </Array>
          </mxGeometry>
        </mxCell>
        <mxCell id="7txPE55cqC671jvcs88a-21" style="edgeStyle=orthogonalEdgeStyle;rounded=0;orthogonalLoop=1;jettySize=auto;html=1;exitX=1;exitY=0.5;exitDx=0;exitDy=0;entryX=0;entryY=0.5;entryDx=0;entryDy=0;" edge="1" parent="1" source="7txPE55cqC671jvcs88a-3" target="7txPE55cqC671jvcs88a-8">
          <mxGeometry relative="1" as="geometry">
            <Array as="points">
              <mxPoint x="460" y="473" />
              <mxPoint x="460" y="550" />
            </Array>
          </mxGeometry>
        </mxCell>
        <mxCell id="7txPE55cqC671jvcs88a-3" value="目标检测模型智能分析隐患" style="rounded=0;whiteSpace=wrap;html=1;" vertex="1" parent="1">
          <mxGeometry x="350" y="443" width="100" height="57" as="geometry" />
        </mxCell>
        <mxCell id="7txPE55cqC671jvcs88a-6" value="工程车(吊车、翻斗车等施工车辆）" style="rounded=0;whiteSpace=wrap;html=1;" vertex="1" parent="1">
          <mxGeometry x="490" y="380" width="90" height="50" as="geometry" />
        </mxCell>
        <mxCell id="7txPE55cqC671jvcs88a-24" style="edgeStyle=orthogonalEdgeStyle;rounded=0;orthogonalLoop=1;jettySize=auto;html=1;exitX=1;exitY=0.5;exitDx=0;exitDy=0;entryX=0;entryY=0.5;entryDx=0;entryDy=0;" edge="1" parent="1" source="7txPE55cqC671jvcs88a-7" target="7txPE55cqC671jvcs88a-23">
          <mxGeometry relative="1" as="geometry">
            <Array as="points">
              <mxPoint x="580" y="473" />
              <mxPoint x="580" y="484" />
            </Array>
          </mxGeometry>
        </mxCell>
        <mxCell id="7txPE55cqC671jvcs88a-25" style="edgeStyle=orthogonalEdgeStyle;rounded=0;orthogonalLoop=1;jettySize=auto;html=1;exitX=1;exitY=0.5;exitDx=0;exitDy=0;entryX=0;entryY=0.5;entryDx=0;entryDy=0;" edge="1" parent="1" source="7txPE55cqC671jvcs88a-7" target="7txPE55cqC671jvcs88a-22">
          <mxGeometry relative="1" as="geometry">
            <Array as="points">
              <mxPoint x="580" y="473" />
              <mxPoint x="580" y="445" />
            </Array>
          </mxGeometry>
        </mxCell>
        <mxCell id="7txPE55cqC671jvcs88a-7" value="火焰和烟雾" style="rounded=0;whiteSpace=wrap;html=1;" vertex="1" parent="1">
          <mxGeometry x="480" y="448" width="90" height="50" as="geometry" />
        </mxCell>
        <mxCell id="7txPE55cqC671jvcs88a-18" style="edgeStyle=orthogonalEdgeStyle;rounded=0;orthogonalLoop=1;jettySize=auto;html=1;exitX=1;exitY=0.5;exitDx=0;exitDy=0;entryX=0.009;entryY=0.561;entryDx=0;entryDy=0;entryPerimeter=0;" edge="1" parent="1" source="7txPE55cqC671jvcs88a-8" target="7txPE55cqC671jvcs88a-14">
          <mxGeometry relative="1" as="geometry" />
        </mxCell>
        <mxCell id="7txPE55cqC671jvcs88a-19" style="edgeStyle=orthogonalEdgeStyle;rounded=0;orthogonalLoop=1;jettySize=auto;html=1;exitX=1;exitY=0.5;exitDx=0;exitDy=0;entryX=0;entryY=0.5;entryDx=0;entryDy=0;" edge="1" parent="1" source="7txPE55cqC671jvcs88a-8" target="7txPE55cqC671jvcs88a-15">
          <mxGeometry relative="1" as="geometry" />
        </mxCell>
        <mxCell id="7txPE55cqC671jvcs88a-8" value="导线异常" style="rounded=0;whiteSpace=wrap;html=1;" vertex="1" parent="1">
          <mxGeometry x="480" y="525" width="80" height="50" as="geometry" />
        </mxCell>
        <mxCell id="7txPE55cqC671jvcs88a-14" value="导线覆冰" style="rounded=0;whiteSpace=wrap;html=1;" vertex="1" parent="1">
          <mxGeometry x="610" y="510" width="60" height="40" as="geometry" />
        </mxCell>
        <mxCell id="7txPE55cqC671jvcs88a-15" value="导线异物" style="rounded=0;whiteSpace=wrap;html=1;" vertex="1" parent="1">
          <mxGeometry x="610" y="565" width="60" height="35" as="geometry" />
        </mxCell>
        <mxCell id="7txPE55cqC671jvcs88a-22" value="传统方法" style="rounded=0;whiteSpace=wrap;html=1;" vertex="1" parent="1">
          <mxGeometry x="610" y="430" width="60" height="30" as="geometry" />
        </mxCell>
        <mxCell id="7txPE55cqC671jvcs88a-23" value="机器学习分类任务" style="rounded=0;whiteSpace=wrap;html=1;" vertex="1" parent="1">
          <mxGeometry x="610" y="468" width="60" height="32" as="geometry" />
        </mxCell>
      </root>
    </mxGraphModel>
  </diagram>
</mxfile>
